HIERARCHY
ROOT Hip
{
  OFFSET 0.0 0.0 0.0
  CHANNELS 6 Xposition Yposition Zposition Xrotation Yrotation Zrotation
  JOINT LowerSpine
  {
    OFFSET 0.0 0.061367 -0.03653
    CHANNELS 3 Xrotation Yrotation Zrotation
    JOINT MiddleSpine
    {
      OFFSET 0.0 0.056002 0.002633
      CHANNELS 3 Xrotation Yrotation Zrotation
      JOINT Chest
      {
        OFFSET 0.0 0.069296 -0.013882
        CHANNELS 3 Xrotation Yrotation Zrotation
        JOINT Neck
        {
          OFFSET 0.0 0.156156 -0.002923
          CHANNELS 3 Xrotation Yrotation Zrotation
          JOINT Head
          {
            OFFSET 0.0 0.088183 0.023986
            CHANNELS 3 Xrotation Yrotation Zrotation
            End Site
            {
              OFFSET 1e-06 0.123215 0.003678
            }
          }
        }
        JOINT LClavicle
        {
          OFFSET 0.014189 0.150698 0.046467
          CHANNELS 3 Xrotation Yrotation Zrotation
          JOINT LShoulder
          {
            OFFSET 0.082893 0.021616 -0.034976
            CHANNELS 3 Xrotation Yrotation Zrotation
            JOINT LForearm
            {
              OFFSET 0.195645 -0.000695 -0.001695
              CHANNELS 3 Xrotation Yrotation Zrotation
              JOINT LHand
              {
                OFFSET 0.163209 0.000474 -0.000977
                CHANNELS 3 Xrotation Yrotation Zrotation
                End Site
                {
                  OFFSET 0.0 0.006864 0.0
                }
              }
            }
          }
        }
        JOINT RClavicle
        {
          OFFSET -0.014189 0.150698 0.046467
          CHANNELS 3 Xrotation Yrotation Zrotation
          JOINT RShoulder
          {
            OFFSET -0.082908 0.021619 -0.034982
            CHANNELS 3 Xrotation Yrotation Zrotation
            JOINT RForearm
            {
              OFFSET -0.195645 -0.000695 -0.001695
              CHANNELS 3 Xrotation Yrotation Zrotation
              JOINT RHand
              {
                OFFSET -0.163209 0.000474 -0.000977
                CHANNELS 3 Xrotation Yrotation Zrotation
                End Site
                {
                  OFFSET 0.0 0.006864 0.0
                }
              }
            }
          }
        }
      }
    }
  }
  JOINT RThigh
  {
    OFFSET -0.072558 0.02774 -0.005953
    CHANNELS 3 Xrotation Yrotation Zrotation
    JOINT RShin
    {
      OFFSET -0.005253 -0.285537 0.0
      CHANNELS 3 Xrotation Yrotation Zrotation
      JOINT RFoot
      {
        OFFSET 0.0 -0.28038 0.0
        CHANNELS 3 Xrotation Yrotation Zrotation
        JOINT RToe
        {
          OFFSET 0.0 -0.030816 0.064441
          CHANNELS 3 Xrotation Yrotation Zrotation
          End Site
          {
            OFFSET 0.0 0.0 0.043231
          }
        }
      }
    }
  }
  JOINT LThigh
  {
    OFFSET 0.072557 0.027741 -0.005953
    CHANNELS 3 Xrotation Yrotation Zrotation
    JOINT LShin
    {
      OFFSET 0.005253 -0.285539 0.0
      CHANNELS 3 Xrotation Yrotation Zrotation
      JOINT LFoot
      {
        OFFSET 0.0 -0.28038 0.0
        CHANNELS 3 Xrotation Yrotation Zrotation
        JOINT LToe
        {
          OFFSET 0.0 -0.030816 0.064441
          CHANNELS 3 Xrotation Yrotation Zrotation
          End Site
          {
            OFFSET 0.0 0.0 0.043231
          }
        }
      }
    }
  }
}
MOTION
Frames: 15
Frame Time: 0.03333333333333333
-0.015253 0.573401 -0.050208 3.47793 -0.07139 0.478142 1.278298 -0.134424 -0.822455 0.455687 1.40958 -0.052205 -1.479432 3.788058 -1.916147 -0.422008 0.324289 0.224591 0.037219 0.013417 -0.012079 0.369615 -0.234408 -9.555931 17.483252 -28.088041 -50.357056 12.839186 -44.685371 0.911709 0.226438 0.280776 -0.222281 -0.424389 -0.960109 11.371753 5.137218 43.0397 62.965042 6.228422 30.259285 0.120241 0.275014 -0.540953 0.025293 -15.320671 0.442334 -2.545227 16.411697 -2.405371 3.551102 -2.875371 0.727149 -0.043413 0.240504 0.8269 0.139339 -9.487728 7.968528 5.859888 11.189689 8.502187 -6.371916 -2.676056 -0.148834 0.005661 0.085379 -0.196853 0.00114 
-0.010582 0.569913 -0.047215 -0.952899 -1.222485 0.789205 1.678476 -0.060482 0.340698 -0.244905 1.301627 0.455351 -1.589917 5.204715 -3.426309 0.965797 0.311233 0.287717 0.057897 -0.403893 -0.045467 -1.165228 -1.898573 -9.993731 18.870447 -23.564775 -50.650436 13.281485 -44.919277 2.596336 0.166753 0.255577 -0.195048 -2.020938 1.12952 12.249701 9.047205 35.619072 60.735394 7.945056 35.346405 1.276912 -0.254141 -0.190886 -0.03001 -11.029387 1.023808 -2.323715 16.850945 -0.680997 1.196298 -1.372522 0.052504 -0.402683 -0.147032 0.364094 0.165437 -1.19001 12.614674 3.175805 5.516153 7.95123 -5.752278 -3.01749 -0.520674 0.371439 0.155219 -0.267043 -0.095581 
-0.014124 0.566225 -0.053549 -1.562051 -0.338016 0.620774 1.718593 -0.074642 0.279298 -0.229541 1.091364 0.505844 -1.543418 4.593737 -2.893223 1.138906 0.20496 0.348249 0.038605 -0.364025 -0.042376 -1.515005 -2.143275 -9.995636 18.580145 -22.842655 -52.253021 12.470397 -44.454346 2.608126 0.121014 0.194114 -0.139431 -2.13735 1.909349 12.34138 9.62173 34.237747 60.130733 7.514902 42.566769 2.559119 -0.276286 -0.105277 -0.024641 -10.588392 -0.735097 -2.014533 15.22225 -0.684004 1.22353 -1.133974 0.240489 -0.248108 -0.112714 0.218112 0.112853 -1.173906 12.463117 3.157325 5.341743 7.698406 -5.721409 -3.04718 -0.373074 0.328176 0.128909 -0.198428 -0.071964 
-0.021387 0.566135 -0.055313 -2.415355 -0.112019 0.934757 1.767636 -0.134271 0.232067 -0.215745 0.996379 0.477762 -0.759823 4.396301 -2.696441 1.277202 0.240416 0.398832 0.030246 -0.352274 -0.041029 -1.598095 -2.16776 -10.194407 17.794361 -22.313129 -53.317078 11.359744 -43.283318 2.531482 0.092827 0.160515 -0.101593 -2.157022 2.334722 12.136348 8.72353 33.486187 60.417744 6.333278 46.770023 3.825194 -0.277366 -0.067179 -0.022336 -9.482819 -1.086392 -1.502114 14.289006 -0.541993 0.935261 -1.51901 0.34225 -0.173757 -0.093276 0.160193 0.100039 -0.219677 12.111513 3.140383 4.756499 7.463741 -5.400004 -3.049248 -0.166409 0.417443 0.107962 -0.150459 -0.060155 
-0.027278 0.565313 -0.058144 -3.000637 -0.384421 1.151481 1.826486 -0.180516 0.225955 -0.096313 1.013319 0.406613 -0.01328 4.63444 -2.906245 1.372348 0.286662 0.423996 0.028828 -0.348935 -0.041757 -1.572134 -2.130687 -10.224644 16.986113 -23.452139 -53.45446 10.812556 -41.584949 2.257606 0.084064 0.150927 -0.087203 -2.115248 2.360577 11.996586 7.000987 35.098228 61.026451 6.050615 46.305962 4.162767 -0.283181 -0.051873 -0.021937 -9.006589 -0.648583 -0.840094 14.762868 -0.121523 0.669059 -1.920954 0.348769 -0.164805 -0.099745 0.149686 0.104434 0.157536 12.381456 3.703541 4.942956 7.786637 -5.507566 -3.073497 -0.021082 0.472017 0.105907 -0.138841 -0.056638 
-0.028657 0.565104 -0.060102 -3.207678 -1.057112 1.16638 1.907535 -0.211157 0.201503 0.009889 1.036493 0.357722 0.109112 4.879767 -3.072079 1.435186 0.316081 0.42811 0.029868 -0.337855 -0.043022 -1.512754 -2.064745 -10.112706 16.322578 -25.056332 -53.292843 10.619519 -39.650497 1.909654 0.085177 0.152508 -0.08454 -2.029065 2.182004 11.903601 5.385765 37.327698 61.637383 6.339141 43.364395 3.942626 -0.271555 -0.055187 -0.02065 -9.001143 -0.33288 -0.379232 15.481341 0.092389 0.674998 -2.190688 0.320622 -0.184915 -0.104427 0.164469 0.108537 -0.040882 12.590253 4.33431 5.507257 8.131556 -5.804939 -3.153486 0.058848 0.477939 0.107696 -0.140497 -0.054043 
-0.028008 0.565105 -0.060763 -3.318606 -1.886393 1.141892 1.999676 -0.240424 0.170909 0.069167 1.058418 0.338378 -0.067823 5.104602 -3.090389 1.491428 0.348077 0.428287 0.031825 -0.331689 -0.045549 -1.447054 -2.0117 -9.935989 15.744913 -26.372278 -53.098587 10.400949 -38.383232 1.680367 0.089131 0.158941 -0.086619 -1.963462 1.963878 11.832761 4.044201 39.122688 62.120914 6.745062 39.826218 3.434426 -0.262373 -0.063505 -0.020029 -9.068344 -0.210252 0.02014 16.128948 0.140048 0.777229 -2.386637 0.295793 -0.214828 -0.109375 0.185209 0.113292 -0.283231 12.558844 4.824331 6.065197 8.198319 -6.086089 -3.228022 0.091458 0.466747 0.112161 -0.146881 -0.052936 
-0.026436 0.565043 -0.060592 -3.37137 -2.667492 1.12866 2.06946 -0.263334 0.150308 0.070519 1.058083 0.322564 -0.357479 5.217923 -3.087833 1.53098 0.375407 0.432857 0.034103 -0.32994 -0.047437 -1.394463 -1.985813 -9.776477 15.33252 -27.154793 -52.923191 10.050756 -37.764339 1.559904 0.092997 0.163776 -0.090147 -1.935535 1.794694 11.808864 3.239967 40.202908 62.368065 7.070292 36.809822 2.917186 -0.261307 -0.071126 -0.021114 -9.22393 -0.237588 0.323397 16.554834 0.092497 0.859223 -2.481397 0.280347 -0.236246 -0.115458 0.200914 0.118345 -0.430182 12.490676 5.112117 6.469609 8.104411 -6.299449 -3.2788 0.084627 0.45106 0.115532 -0.150465 -0.053663 
-0.025498 0.564743 -0.060168 -3.272324 -3.336687 1.098225 2.126857 -0.279326 0.133801 0.034505 1.041667 0.307481 -0.7294 5.211392 -3.068453 1.553936 0.395515 0.427635 0.036453 -0.329949 -0.049126 -1.356331 -1.956735 -9.650517 15.049882 -27.581549 -52.759682 9.689714 -37.38699 1.570818 0.096353 0.167687 -0.094143 -1.920997 1.661905 11.808578 2.869947 40.835049 62.452423 7.364024 34.862522 2.521583 -0.263406 -0.077437 -0.023019 -9.455106 -0.364313 0.580937 16.851326 -0.023682 0.935213 -2.472371 0.27119 -0.246219 -0.121123 0.212887 0.122553 -0.664837 12.396513 5.325573 6.823945 7.993711 -6.452103 -3.292806 0.06473 0.438237 0.118878 -0.153303 -0.055109 
-0.025196 0.564082 -0.060188 -3.121098 -3.883538 1.035283 2.175776 -0.297821 0.112923 -0.024964 1.017987 0.31277 -1.097823 5.137789 -2.961211 1.564665 0.4119 0.418144 0.038186 -0.330872 -0.050082 -1.334417 -1.941015 -9.551714 14.78802 -27.6938 -52.67918 9.286283 -37.15683 1.673413 0.098562 0.171306 -0.097621 -1.930159 1.576897 11.795264 2.837157 40.948605 62.373356 7.562952 33.935562 2.253702 -0.26721 -0.07994 -0.024896 -9.621989 -0.644903 0.807547 16.904768 -0.227347 1.037357 -2.442466 0.277433 -0.250975 -0.122935 0.221868 0.125093 -0.918535 12.070274 5.483259 7.04289 7.707728 -6.490913 -3.296743 0.038541 0.425685 0.122269 -0.156782 -0.056832 
-0.02504 0.563203 -0.060708 -3.080446 -4.365008 1.048143 2.222229 -0.311296 0.098454 -0.089719 0.996164 0.325038 -1.395484 5.071646 -2.775113 1.580028 0.418618 0.411271 0.039035 -0.328049 -0.050042 -1.336528 -1.950972 -9.488641 14.503607 -27.622166 -52.806087 8.923868 -37.085545 1.781911 0.098626 0.172129 -0.098302 -1.9533 1.546474 11.772838 2.803944 40.736706 62.333954 7.515554 33.205616 2.087749 -0.269906 -0.078651 -0.026014 -9.599376 -0.91964 0.974883 16.818981 -0.370444 1.11732 -2.466104 0.288246 -0.252142 -0.123028 0.224845 0.12582 -0.973208 11.690041 5.496094 6.987731 7.359314 -6.43476 -3.274753 0.019325 0.412526 0.123392 -0.157511 -0.057339 
-0.024569 0.562294 -0.061773 -2.926475 -4.790355 1.098358 2.261363 -0.320729 0.090551 -0.165651 0.97255 0.350757 -1.773166 5.025125 -2.558398 1.593378 0.424596 0.408411 0.039501 -0.324948 -0.0494 -1.342191 -1.97174 -9.45424 14.293851 -27.401438 -53.116798 8.615508 -37.083046 1.858986 0.098657 0.17287 -0.09906 -1.97081 1.531984 11.740771 2.788651 40.403133 62.349083 7.33327 32.361507 1.987727 -0.272054 -0.076273 -0.026757 -9.703225 -1.109005 1.133954 16.817492 -0.465537 1.18618 -2.566672 0.292611 -0.259114 -0.122312 0.229195 0.126147 -1.194074 11.237736 5.432697 6.900166 6.946327 -6.327875 -3.239312 -0.008556 0.398416 0.123866 -0.158672 -0.057895 
-0.023543 0.561226 -0.06371 -2.558171 -5.171545 1.226305 2.296382 -0.324347 0.08837 -0.26367 0.930631 0.38421 -2.337786 4.979723 -2.324479 1.611814 0.4313 0.410053 0.039378 -0.319131 -0.047359 -1.355399 -1.999027 -9.431891 14.184896 -27.024969 -53.574287 8.35568 -37.130894 1.857911 0.098076 0.172492 -0.099284 -1.981104 1.546538 11.691582 2.833257 39.978458 62.421265 7.046391 31.294729 1.956216 -0.27349 -0.070625 -0.027007 -10.120468 -1.216215 1.261749 17.04089 -0.518648 1.266555 -2.789141 0.281757 -0.274182 -0.121301 0.233446 0.125161 -1.814158 10.706521 5.284845 6.925054 6.466092 -6.18958 -3.19017 -0.05847 0.376207 0.123308 -0.159043 -0.057892 
-0.021968 0.559925 -0.066459 -2.054754 -5.437189 1.371638 2.323054 -0.323778 0.084 -0.366033 0.879213 0.419283 -2.948753 4.934609 -2.092758 1.62003 0.432106 0.414423 0.038529 -0.308836 -0.044638 -1.374681 -2.019417 -9.419131 14.161382 -26.641565 -54.079201 8.184999 -37.183277 1.771715 0.096641 0.170862 -0.09868 -1.984239 1.581547 11.641468 2.889071 39.650955 62.542957 6.674685 30.126886 1.970533 -0.268621 -0.065142 -0.026338 -10.820564 -1.262133 1.294483 17.526779 -0.554449 1.369179 -3.080501 0.249966 -0.295967 -0.117729 0.236295 0.12203 -2.774439 10.142764 5.123038 7.072839 5.999148 -6.048803 -3.157674 -0.112741 0.341673 0.12113 -0.157212 -0.056417 
-0.019761 0.558401 -0.069906 -1.305005 -5.523303 1.447835 2.317525 -0.319641 0.079983 -0.469113 0.820351 0.446847 -3.591943 4.877462 -1.962169 1.607336 0.426611 0.424361 0.037465 -0.296591 -0.04217 -1.387666 -2.013047 -9.396883 14.320197 -26.314789 -54.408958 8.205422 -37.283291 1.633792 0.09532 0.169407 -0.099161 -1.982563 1.625329 11.622462 3.043655 39.480717 62.66415 6.309314 29.013021 2.035516 -0.260997 -0.061251 -0.025584 -12.112733 -1.176839 1.244732 18.444035 -0.562984 1.485263 -3.370996 0.191757 -0.324904 -0.116143 0.239707 0.118916 -4.27539 9.673929 5.014821 7.643007 5.703272 -6.001282 -3.147409 -0.162721 0.30121 0.119246 -0.155319 -0.054353 
